<?xml version="1.0" standalone="no"?>
<!DOCTYPE svg PUBLIC "-//W3C//DTD SVG 20010904//EN"
 "http://www.w3.org/TR/2001/REC-SVG-20010904/DTD/svg10.dtd">
<svg version="1.0" xmlns="http://www.w3.org/2000/svg"
 width="400.000000pt" height="400.000000pt" viewBox="0 0 400.000000 400.000000"
 preserveAspectRatio="xMidYMid meet">
<metadata>
Created by potrace 1.14, written by Peter Selinger 2001-2017
</metadata>
<g transform="translate(0.000000,400.000000) scale(0.100000,-0.100000)"
fill="#000000" stroke="none">
<path d="M0 2733 l0 -1268 26 30 26 30 231 0 232 0 3 -190 c3 -206 -6 -358
-19 -315 -4 14 -7 19 -8 11 -2 -26 -12 -4 -16 34 -2 20 -5 39 -8 41 -3 3 -30
8 -61 11 -40 4 -54 9 -47 16 6 6 11 16 11 21 0 6 -4 4 -10 -4 -13 -21 -23 -5
-11 18 17 31 13 50 -10 63 -15 8 -28 8 -43 1 -11 -6 -41 -13 -66 -16 -24 -2
-46 -10 -48 -15 -2 -6 -12 -11 -23 -11 -18 0 -36 29 -53 83 -4 12 -16 17 -42
17 -23 0 -42 6 -50 18 -11 14 -13 -92 -14 -645 l0 -663 2000 0 2000 0 0 2000
0 2000 -2000 0 -2000 0 0 -1267z m2143 822 c20 -8 48 -15 62 -15 14 0 37 -7
50 -16 14 -9 35 -14 46 -11 15 4 35 -4 63 -26 22 -18 43 -36 44 -40 2 -4 19
-5 37 -1 22 4 43 0 66 -12 24 -13 50 -17 87 -15 31 2 59 -2 67 -9 8 -7 15 -9
15 -5 0 4 7 1 17 -6 12 -11 17 -11 20 -2 3 9 11 6 26 -8 12 -11 30 -18 39 -15
10 2 16 0 12 -5 -3 -5 4 -9 15 -9 15 0 19 -4 14 -17 -5 -12 -2 -15 10 -10 8 3
21 0 27 -8 6 -8 18 -11 26 -8 8 3 14 0 14 -6 0 -6 11 -11 25 -11 14 0 30 -9
37 -20 7 -11 20 -20 29 -20 8 0 26 -14 38 -31 13 -18 18 -28 10 -23 -7 4 -4
-5 9 -20 12 -16 22 -43 22 -60 0 -30 26 -152 40 -191 62 -162 85 -386 56 -545
-7 -41 -14 -111 -15 -155 -3 -101 -13 -147 -52 -232 -33 -72 -87 -230 -113
-331 -33 -126 -109 -339 -153 -426 -73 -147 -146 -247 -289 -397 -74 -77 -136
-150 -138 -162 -3 -12 -7 -34 -10 -49 -4 -15 -23 -62 -43 -104 -38 -79 -94
-134 -135 -134 -10 0 -44 -9 -76 -19 -42 -14 -104 -21 -237 -28 -214 -10 -232
-9 -310 16 -33 11 -84 24 -114 30 -71 15 -116 36 -171 81 -25 20 -81 60 -124
90 -44 29 -90 65 -103 79 -25 27 -113 202 -113 224 0 8 20 39 44 71 35 45 46
68 51 110 10 74 5 91 -25 91 -23 0 -25 4 -26 43 0 43 7 49 54 43 16 -2 16 43
0 69 -11 17 -9 22 10 36 35 24 15 37 -22 14 -19 -11 -43 -20 -56 -20 -12 0
-34 -9 -49 -19 -15 -11 -43 -20 -62 -19 -53 0 -119 -18 -140 -38 -16 -17 -17
-25 -8 -58 l11 -38 46 5 c26 3 54 0 64 -7 16 -9 22 -7 39 17 12 15 25 27 30
27 19 0 -4 -74 -28 -93 -12 -10 -23 -24 -23 -30 0 -7 -7 -21 -15 -31 -14 -19
-15 -18 -36 8 -22 28 -29 29 -85 11 -18 -6 -21 -3 -19 19 2 14 -1 26 -6 26 -5
0 -9 6 -9 13 0 8 -16 22 -35 33 l-35 19 -2 185 c-2 204 -1 250 7 259 3 3 111
4 239 3 l233 -3 12 45 c14 58 14 106 -1 106 -6 0 -31 9 -55 21 -31 15 -54 38
-89 90 -58 88 -88 169 -108 290 -20 121 -20 175 0 269 34 166 86 206 175 135
56 -44 96 -47 97 -7 1 37 6 65 16 80 4 7 4 21 1 32 -8 26 3 61 18 58 16 -3 57
12 57 20 0 4 -5 14 -10 22 -7 12 -12 12 -22 2 -14 -14 -28 -16 -28 -4 0 5 12
14 26 21 15 7 24 17 21 25 -3 8 5 24 18 36 13 12 27 36 30 52 4 16 15 34 26
41 10 6 19 19 19 29 0 9 8 23 18 30 19 15 37 41 52 77 6 14 16 21 25 17 8 -3
17 -1 20 4 4 6 17 10 31 10 13 0 24 5 24 11 0 12 51 63 79 79 13 8 12 9 -7 10
-21 0 -22 2 -8 15 10 10 25 14 43 10 15 -3 22 -2 16 1 -21 10 -14 24 11 24 34
0 91 57 75 76 -12 14 -11 14 27 18 21 2 64 29 64 40 0 6 29 33 65 60 35 26 74
57 86 67 12 10 25 16 30 14 4 -3 10 -1 13 3 3 5 28 8 56 6 27 -1 52 2 55 7 8
12 6 12 48 -6z m-353 -95 c0 -5 -2 -10 -4 -10 -3 0 -8 5 -11 10 -3 6 -1 10 4
10 6 0 11 -4 11 -10z m-80 -80 c0 -5 -9 -10 -20 -10 -11 0 -20 5 -20 10 0 6 9
10 20 10 11 0 20 -4 20 -10z m-194 -186 c-9 -8 -20 -12 -26 -9 -15 9 -2 25 21
25 19 0 19 -1 5 -16z m-1456 -1954 c0 -5 -2 -10 -4 -10 -3 0 -8 5 -11 10 -3 6
-1 10 4 10 6 0 11 -4 11 -10z m770 -276 c0 -8 -9 -14 -19 -14 -11 0 -21 -4
-23 -9 -1 -4 -14 -12 -26 -16 l-24 -7 18 29 c10 15 23 31 27 34 14 10 47 -2
47 -17z m2198 -186 c14 -14 16 -64 3 -72 -5 -3 -12 -22 -15 -41 -4 -21 -13
-35 -22 -35 -11 0 -12 4 -5 18 7 12 4 24 -10 41 -22 26 -23 39 -9 75 10 28 38
34 58 14z m225 -128 c3 6 4 5 3 -2 -1 -7 -10 -14 -19 -16 -12 -3 -17 3 -17 20
1 22 1 22 14 5 9 -11 16 -14 19 -7z m-1968 -221 c4 -6 16 -14 28 -18 20 -7 19
-8 -6 -13 -21 -4 -27 -1 -27 13 0 9 -6 20 -12 22 -10 4 -10 6 -1 6 6 1 15 -4
18 -10z m92 -95 c-3 -3 -12 -4 -19 -1 -8 3 -5 6 6 6 11 1 17 -2 13 -5z m358
-124 c-28 -12 -37 -12 -30 0 3 6 16 10 28 9 21 0 21 -1 2 -9z m115 0 c10 -6
11 -10 3 -10 -7 0 -13 -4 -13 -10 0 -5 6 -7 14 -4 8 3 19 -4 26 -16 21 -39 0
-35 -42 8 -32 33 -36 42 -22 42 11 0 26 -5 34 -10z"/>
<path d="M1380 2999 c0 -5 5 -7 10 -4 6 3 10 8 10 11 0 2 -4 4 -10 4 -5 0 -10
-5 -10 -11z"/>
<path d="M1315 2930 c-3 -5 -2 -10 4 -10 5 0 13 5 16 10 3 6 2 10 -4 10 -5 0
-13 -4 -16 -10z"/>
<path d="M2054 2392 c4 -7 -4 -14 -19 -18 -32 -8 -32 -18 0 -32 14 -6 25 -17
25 -23 0 -7 10 -9 25 -7 16 3 30 -1 41 -13 16 -18 16 -19 -7 -20 -21 -1 -19
-3 12 -18 20 -9 44 -23 53 -30 9 -8 16 -9 16 -3 0 6 -11 19 -25 30 -31 25 -24
32 23 21 20 -5 50 -9 67 -9 l29 0 -32 30 c-18 17 -39 30 -47 30 -7 0 -15 5
-17 12 -3 7 -18 13 -34 14 -51 3 -55 4 -49 14 8 14 -18 13 -32 -1 -8 -8 -11
-6 -10 6 1 10 -4 20 -12 23 -8 3 -11 0 -7 -6z"/>
<path d="M1870 2264 c-35 -8 -67 -18 -70 -23 -3 -4 -15 -13 -27 -20 -13 -7
-20 -17 -17 -26 5 -13 10 -13 41 0 39 16 73 20 73 7 0 -4 8 -8 18 -9 9 -1 33
-5 52 -8 19 -3 30 -2 23 1 -7 3 -11 11 -9 17 1 7 1 9 -1 5 -9 -15 -24 -8 -21
9 2 13 14 18 43 20 22 1 48 3 58 3 9 1 17 5 17 11 0 17 28 9 59 -17 17 -14 29
-20 26 -12 -20 49 -146 69 -265 42z"/>
<path d="M2005 2201 c3 -6 -3 -14 -12 -20 -16 -9 -14 -10 10 -11 29 0 38 24
11 34 -8 3 -12 2 -9 -3z"/>
<path d="M2780 2195 c-14 -8 -33 -14 -42 -15 -10 0 -18 -4 -18 -9 0 -5 -8 -11
-17 -14 -11 -2 0 -9 27 -16 24 -7 53 -19 63 -26 20 -14 22 -13 -138 -43 -44
-8 -57 -33 -33 -64 11 -15 20 -16 53 -8 42 10 89 -1 182 -42 24 -10 49 -18 57
-18 8 0 16 -10 18 -22 2 -13 11 -24 21 -26 11 -2 17 2 16 10 -1 7 1 21 6 31
12 27 -12 71 -53 96 -20 13 -53 32 -72 44 -42 25 -25 33 41 18 31 -7 45 -7 50
1 4 7 15 13 24 14 9 1 19 4 21 7 9 9 -62 55 -96 62 -19 4 -44 14 -55 21 -24
17 -24 17 -55 -1z m40 -154 c0 -25 -70 -37 -77 -13 -3 7 1 10 10 6 8 -3 18 -1
22 5 7 13 45 15 45 2z m64 -12 c21 -17 24 -24 15 -35 -14 -17 -69 -19 -69 -1
0 22 12 57 20 57 4 0 19 -9 34 -21z"/>
<path d="M3066 2202 c-3 -6 -1 -14 5 -17 15 -10 25 3 12 16 -7 7 -13 7 -17 1z"/>
<path d="M2128 2183 c-10 -2 -18 -8 -18 -13 0 -17 22 -25 130 -43 9 -2 21 -6
27 -10 17 -11 27 12 12 29 -8 9 -16 11 -22 5 -11 -11 -33 -4 -66 21 -24 18
-31 19 -63 11z"/>
<path d="M2958 2154 c13 -9 26 -13 30 -9 8 8 -17 25 -38 25 -9 0 -6 -6 8 -16z"/>
<path d="M2660 2110 c-11 -7 -4 -10 25 -10 22 0 47 5 55 10 11 7 4 10 -25 10
-22 0 -47 -5 -55 -10z"/>
<path d="M1030 2102 c0 -12 19 -26 26 -19 2 2 -2 10 -11 17 -9 8 -15 8 -15 2z"/>
<path d="M2225 2050 c-3 -5 -1 -10 4 -10 6 0 11 5 11 10 0 6 -2 10 -4 10 -3 0
-8 -4 -11 -10z"/>
<path d="M2618 1963 c-21 -5 -24 -43 -6 -61 16 -16 31 -15 25 2 -8 19 3 28 19
15 26 -21 29 -4 4 22 -14 14 -33 24 -42 22z"/>
<path d="M714 1496 c-27 -23 -28 -26 -17 -56 9 -24 9 -38 2 -52 -12 -23 -5
-75 15 -101 12 -15 16 -16 27 -4 8 7 41 19 74 25 59 12 66 16 108 76 10 14 32
29 50 34 38 10 43 36 7 40 -14 2 -33 11 -43 19 -14 13 -22 14 -43 5 -13 -7
-34 -12 -46 -12 -16 0 -19 -4 -14 -24 7 -30 -7 -41 -32 -25 -13 8 -18 23 -18
53 1 35 -2 41 -20 44 -12 2 -34 -8 -50 -22z"/>
<path d="M1043 1513 c-6 -5 -13 -28 -15 -53 l-3 -45 40 0 40 0 0 50 c0 46 -2
50 -25 53 -14 1 -30 -1 -37 -5z"/>
<path d="M1808 1235 c17 -14 35 -25 41 -25 6 0 11 -4 11 -9 0 -15 33 -22 42
-9 5 8 11 9 16 3 10 -14 51 -32 87 -40 79 -16 103 -23 135 -39 l35 -17 -35 30
c-50 44 -107 69 -191 87 -41 8 -91 21 -112 29 -54 22 -63 18 -29 -10z"/>
<path d="M2300 1091 l-45 -6 38 -8 c21 -5 54 -17 73 -28 l35 -19 26 26 c21 21
23 28 12 35 -15 10 -69 9 -139 0z"/>
<path d="M134 1469 c-18 -20 -18 -21 6 -40 14 -10 30 -19 36 -19 6 0 17 -7 24
-15 31 -38 77 0 64 52 -9 36 -20 43 -70 43 -29 0 -46 -6 -60 -21z"/>
<path d="M351 1451 c-12 -16 -21 -40 -21 -54 0 -18 -7 -27 -25 -31 -25 -6 -34
-30 -15 -41 15 -9 50 4 50 19 0 8 25 18 63 26 68 14 89 26 64 36 -9 3 -26 21
-38 40 -25 42 -51 43 -78 5z"/>
<path d="M2 1395 c0 -16 2 -22 5 -12 2 9 2 23 0 30 -3 6 -5 -1 -5 -18z"/>
<path d="M206 1324 c-9 -25 -7 -62 5 -69 5 -4 21 -4 35 -1 40 10 31 86 -11 86
-13 0 -26 -7 -29 -16z"/>
<path d="M420 1281 c0 -84 33 -132 59 -83 13 25 -19 126 -42 130 -14 3 -17 -5
-17 -47z"/>
</g>
</svg>
